<?xml version="1.0" encoding="iso-8859-1"?>
<!-- Generator: Adobe Illustrator 19.0.0, SVG Export Plug-In . SVG Version: 6.00 Build 0)  -->
<svg version="1.1" id="Capa_1" xmlns="http://www.w3.org/2000/svg" xmlns:xlink="http://www.w3.org/1999/xlink" x="0px" y="0px"
	 viewBox="0 0 512 512" style="enable-background:new 0 0 512 512;" xml:space="preserve">
<g>
	<g>
		<path d="M146.193,168.365c-4.142,0-7.5,3.358-7.5,7.5v19.855c0,4.142,3.358,7.5,7.5,7.5c4.142,0,7.5-3.358,7.5-7.5v-19.855
			C153.693,171.723,150.335,168.365,146.193,168.365z"/>
	</g>
</g>
<g>
	<g>
		<path d="M365.608,168.365c-4.142,0-7.5,3.358-7.5,7.5v19.855c0,4.142,3.358,7.5,7.5,7.5c4.142,0,7.5-3.358,7.5-7.5v-19.855
			C373.108,171.723,369.75,168.365,365.608,168.365z"/>
	</g>
</g>
<g>
	<g>
		<path d="M287.915,188.692c-3.119-2.727-7.857-2.409-10.583,0.71c-5.231,5.983-13.042,9.416-21.431,9.416
			c-8.389,0-16.2-3.432-21.431-9.416c-2.726-3.119-7.464-3.437-10.583-0.711c-3.119,2.726-3.437,7.464-0.711,10.583
			c8.08,9.243,20.008,14.544,32.725,14.544c12.717,0,24.644-5.301,32.724-14.543C291.351,196.157,291.033,191.419,287.915,188.692z"
			/>
	</g>
</g>
<g>
	<g>
		<path d="M477.269,129.223c-15.105-15.95-34.261-25.288-54.423-26.691c-1.842-4.662-3.952-9.112-6.35-13.329
			c-16.699-29.37-47.39-46.714-84.685-48.081c-2.571-5.209-5.484-9.866-8.751-13.986C308.379,8.623,287.061,0,255.972,0
			c-31.089,0-52.407,8.623-67.088,27.136c-3.267,4.119-6.18,8.775-8.75,13.983c-34.835,1.236-63.425,16.001-80.858,41.912
			c-4.012,5.963-7.382,12.479-10.148,19.495c-16.246,1.117-31.826,7.365-45.344,18.272c-15.099,12.183-26.507,29.348-32.991,49.639
			c-11.823,36.998-6.23,81.807,15.75,126.172c26.097,52.681,73.602,104.078,141.2,152.821c-0.044,0.477-0.104,0.95-0.132,1.431
			c-0.888,14.844,5.936,28.782,18.722,38.239c20.255,14.981,44.312,22.9,69.568,22.9c25.539,0,49.819-8.086,70.216-23.384
			c12.388-9.291,19.031-22.981,18.227-37.56c-0.03-0.545-0.091-1.083-0.142-1.623c110.199-79.469,146.892-151.906,158.206-198.893
			c0.97-4.027-1.509-8.078-5.536-9.047c-4.029-0.971-8.078,1.509-9.047,5.536c-10.573,43.909-44.946,111.573-148.048,187.084
			c-1.749-3.445-3.966-6.672-6.622-9.617c20.765-35.211,40.132-71.334,56.758-108.695c17.792-39.982,32.991-81.833,39.415-125.29
			c0.01-0.064,0.02-0.13,0.029-0.194c3.975-27.416,3.448-51.527-1.568-72.128c14.207,2.406,27.631,9.778,38.589,21.348
			c18.292,19.315,27.412,47.443,25.682,79.205c-0.226,4.136,2.945,7.671,7.081,7.896c4.133,0.229,7.671-2.945,7.896-7.081
			C508.994,183.64,498.422,151.559,477.269,129.223z M191.802,51.519c2.513-5.786,5.455-10.801,8.835-15.063
			C212.245,21.818,229.828,15,255.972,15c26.144,0,43.728,6.818,55.335,21.457c3.385,4.269,6.332,9.294,8.849,15.092
			c20.993,48.46,11.501,153.24-30.857,338.454c-0.887,3.88-2.781,12.612-2.985,12.756c-0.669,0.468-3.981-0.565-4.738-0.671
			c-8.498-1.192-17.097-1.698-25.675-1.698c-2.508,0-30.473,1.692-30.307,2.406c-1.009-4.345-2.07-8.948-3.085-13.393
			C180.26,204.525,170.814,99.913,191.802,51.519z M124.512,321.365c1.632,3.594,11.601,24.568,14.985,31.321
			c8.46,16.882,17.397,33.524,26.684,49.965c4.134,7.318,8.331,14.596,12.601,21.835c-2.654,2.952-4.876,6.177-6.623,9.623
			C108.878,387.768,64.431,339.3,39.982,289.949C19.741,249.092,14.449,208.27,25.08,175.002
			c5.589-17.488,15.313-32.195,28.122-42.531c9.399-7.583,19.95-12.431,30.963-14.288c-0.049,0.2-1.266,5.814-1.275,5.861
			c-7.759,39.282-0.214,89.974,22.519,151.189c2.303,6.203,4.703,12.372,7.195,18.501c1.553,3.818,5.893,5.662,9.715,4.142
			c0.02-0.008,0.04-0.013,0.059-0.021c4.316-1.741,5.433-6.547,3.813-10.542c-13.63-33.627-25.237-69.153-29.597-105.462
			c-1.919-15.985-2.384-32.263-0.098-48.235c0.003-0.021,0.006-0.043,0.009-0.064c2.677-18.622,8.555-32.252,15.214-42.149
			C128.813,66,154.983,58.43,173.975,56.56c-13.871,44.498-9.825,119.759,13.49,240.213c0.02,0.103,0.04,0.206,0.06,0.309
			c2.301,11.931,4.711,23.843,7.207,35.735c1.301,6.191,16.951,73.152,16.251,73.385c-0.25,0.074-14.281,5.045-20.437,8.697
			c-0.034-0.058-0.069-0.117-0.103-0.175c-0.236-0.402-4.836-8.311-5.271-9.065c-10.869-18.837-21.284-37.94-31.086-57.355
			c-5.523-10.948-10.73-22.032-15.914-33.142c-1.713-3.771-6.159-5.44-9.93-3.728C124.595,313.09,122.804,317.602,124.512,321.365z
			 M317.117,476.616C299.083,490.142,278.487,497,255.901,497c-22.336,0-42.741-6.715-60.648-19.96
			c-8.631-6.384-13.249-15.599-12.669-25.283c1.98-33.094,48.719-36.367,73.317-36.367c17.034,0,34.702,1.878,50.458,8.757
			c11.537,5.037,22.269,14.351,23.008,27.737C329.89,461.37,325.425,470.385,317.117,476.616z M415.224,183.002
			c-0.014,0.113-0.026,0.225-0.04,0.338c-0.033,0.265-0.073,0.537-0.107,0.803c-1.052,8.084-2.525,16.507-4.433,25.271
			c-9.991,45.904-31.687,100.142-64.663,161.749c-5.001,9.343-21.508,38.489-24.621,43.794c0.136-0.391-7.618-3.936-8.452-4.306
			c-3.882-1.722-7.887-3.194-11.955-4.414c0.162-0.698,16.867-73.385,23.499-109.323c0.002-0.013,0.005-0.027,0.008-0.04
			c23.334-120.518,27.386-195.811,13.507-240.319c20.447,1.993,48.687,10.511,65.49,40.062c2.72,4.785,5.024,9.932,6.927,15.423
			c0.022,0.07,0.035,0.142,0.059,0.212C416.105,128.807,419.112,151.69,415.224,183.002z" fill="red"/>
	</g>
</g>
<g>
</g>
<g>
</g>
<g>
</g>
<g>
</g>
<g>
</g>
<g>
</g>
<g>
</g>
<g>
</g>
<g>
</g>
<g>
</g>
<g>
</g>
<g>
</g>
<g>
</g>
<g>
</g>
<g>
</g>
</svg>
